<?xml version="1.0" standalone="no"?>
<!DOCTYPE svg PUBLIC "-//W3C//DTD SVG 20010904//EN"
 "http://www.w3.org/TR/2001/REC-SVG-20010904/DTD/svg10.dtd">
<svg version="1.0" xmlns="http://www.w3.org/2000/svg"
 width="1088.000000pt" height="896.000000pt" viewBox="0 0 1088.000000 896.000000"
 preserveAspectRatio="xMidYMid meet">

<g transform="translate(0.000000,896.000000) scale(0.100000,-0.100000)"
fill="#000000" stroke="none">
<path d="M0 4340 l0 -4340 5440 0 5440 0 0 1200 c0 953 -3 1200 -12 1200 -9 0
-8 4 2 10 11 7 -4 10 -48 10 -43 0 -61 4 -56 11 3 6 -1 10 -12 9 -11 -1 -35
-1 -54 1 -19 2 15 6 75 9 l110 6 -152 2 c-88 1 -154 6 -158 12 -3 6 -23 11
-43 12 -20 1 17 5 83 8 l120 6 -157 2 c-91 1 -159 6 -163 12 -3 5 -23 11 -43
12 -20 1 -1 5 43 8 l80 6 -115 2 c-82 2 -111 5 -100 13 12 8 12 10 -5 8 -11
-1 -33 0 -50 2 -16 2 20 6 80 9 l110 6 -137 2 c-78 1 -139 6 -143 12 -3 6 -18
11 -33 12 -15 1 14 5 63 8 l90 6 -117 2 c-65 1 -120 6 -123 12 -3 6 -18 11
-33 12 -15 1 23 5 83 8 l110 6 -137 2 c-78 1 -139 6 -143 12 -3 6 -18 11 -33
12 -15 1 5 4 43 8 l70 6 -95 2 c-69 2 -91 5 -80 13 12 8 12 10 -5 8 -11 -1
-29 0 -40 2 -11 1 25 6 80 9 l100 6 -122 2 c-74 1 -123 6 -123 12 0 6 -12 11
-27 12 -16 1 4 4 42 8 l70 6 -95 2 c-66 2 -90 5 -80 12 11 7 5 10 -25 12 -22
1 -4 5 40 8 l80 6 -102 2 c-61 1 -103 6 -103 12 0 6 -10 11 -22 12 -13 1 6 4
42 8 l65 7 -88 1 c-56 1 -86 6 -82 12 3 6 -6 11 -22 12 -15 1 13 5 62 8 l90 6
-108 2 c-69 1 -106 6 -102 12 3 6 -6 11 -22 12 -16 0 -7 4 22 8 48 7 47 7 -25
9 -53 1 -71 4 -60 11 11 7 7 10 -20 12 -19 1 -1 4 40 8 l75 6 -95 2 c-69 2
-91 5 -80 13 12 8 12 10 -5 8 -49 -4 -45 5 5 11 l55 7 -68 1 c-43 1 -66 6 -62
12 3 6 -6 11 -22 12 -15 1 4 4 42 8 l70 6 -88 2 c-56 1 -86 6 -82 12 3 6 -6
11 -22 12 -16 0 -7 4 22 8 l50 7 -62 1 -63 2 0 -265 0 -265 -90 0 -90 0 0 60
0 60 -36 -40 c-56 -61 -127 -92 -233 -98 -73 -4 -99 -1 -153 17 -165 55 -267
168 -303 336 -36 169 2 320 109 433 58 62 98 88 180 118 46 17 55 23 36 25
-15 1 -7 5 20 9 l45 7 -60 2 c-44 2 -55 5 -40 11 17 7 14 9 -15 11 -28 2 -24
4 20 9 l55 7 -62 1 c-35 1 -63 7 -63 12 0 6 -8 11 -17 11 -10 1 0 5 22 9 39 7
39 7 -15 9 -40 1 -51 4 -40 11 12 8 10 10 -10 11 -14 1 -6 5 20 9 l45 7 -55 2
c-30 1 -63 8 -74 16 -17 13 -13 14 35 18 l54 3 -62 2 c-35 1 -63 7 -63 12 0 6
-8 11 -17 12 -10 1 9 4 42 8 l60 7 -68 1 c-43 1 -66 6 -62 12 3 6 -4 11 -17
12 -13 0 -3 4 22 8 l45 7 -55 2 c-40 1 -51 4 -40 11 12 8 10 10 -10 12 -14 1
4 4 40 8 l65 7 -76 1 c-53 1 -80 6 -89 16 -10 13 -4 15 37 19 44 3 43 4 -17 6
-49 2 -59 5 -40 11 23 7 23 8 -10 11 -29 2 -25 3 20 9 l55 7 -62 1 c-35 1 -63
7 -63 12 0 6 -8 11 -17 11 -10 1 0 5 22 9 l40 7 -48 2 c-29 0 -46 5 -42 11 3
6 -2 11 -12 12 -10 1 9 4 42 8 l60 7 -68 1 c-43 1 -66 6 -62 12 3 6 -2 11 -12
11 -10 1 0 5 22 9 39 7 39 7 -15 9 -40 1 -51 4 -40 11 12 8 10 10 -10 11 -14
1 -6 5 20 9 l45 7 -55 2 c-40 1 -51 4 -40 11 12 8 10 10 -10 11 -14 1 -6 5 20
9 l45 7 -55 2 c-40 1 -51 4 -40 11 12 8 10 10 -10 11 -14 1 -6 5 20 9 l45 7
-55 2 c-40 1 -51 4 -40 11 12 8 10 10 -10 11 -14 1 -6 5 20 9 l45 7 -55 2
c-40 1 -51 4 -40 11 12 8 10 10 -10 11 -14 1 -6 5 20 9 l45 7 -55 2 c-40 1
-51 4 -40 11 12 8 10 10 -10 11 -14 1 -6 5 20 9 l45 7 -55 2 c-40 1 -51 4 -40
11 12 8 10 10 -10 11 -14 1 -6 5 20 9 l45 7 -55 2 c-40 1 -51 4 -40 11 12 8
10 10 -10 11 -14 1 -6 5 20 9 l45 7 -55 2 c-40 1 -51 4 -40 11 12 8 10 10 -10
11 -14 1 -6 5 20 9 l45 7 -55 2 c-40 1 -51 4 -40 11 12 8 10 10 -10 11 -14 1
-6 5 20 9 l45 7 -48 1 c-29 1 -46 6 -42 12 3 6 -2 11 -12 11 -10 1 0 5 22 9
l40 7 -48 2 c-29 0 -46 5 -42 11 3 6 -2 11 -12 11 -10 1 0 5 22 9 l40 7 -48 2
c-29 0 -46 5 -42 11 3 5 0 11 -7 12 -7 1 12 4 42 8 l55 7 -58 1 c-37 1 -64 8
-73 17 -14 13 -12 15 18 16 33 2 32 2 -7 9 -22 4 -31 8 -20 10 15 2 12 4 -10
10 -27 7 -25 8 20 10 l50 3 -59 6 c-72 7 -87 28 -24 34 40 3 39 4 -12 5 -40 2
-51 5 -40 12 12 8 10 10 -10 11 -14 1 -6 5 20 9 l45 7 -48 1 c-29 1 -46 6 -42
12 3 6 -2 11 -12 11 -10 1 0 5 22 9 l40 7 -48 2 c-29 0 -46 5 -42 11 3 6 0 11
-7 12 -7 1 12 4 42 8 l55 7 -61 1 c-43 2 -64 6 -67 16 -4 10 3 16 21 19 20 3
17 5 -13 6 -32 2 -36 4 -20 11 19 8 18 9 -5 11 -16 1 -8 5 20 9 l45 7 -55 2
c-40 1 -51 4 -40 11 13 8 12 10 -5 11 -11 1 -2 5 20 9 l40 7 -48 2 c-29 0 -46
5 -42 11 3 6 0 11 -7 11 -7 1 3 5 22 9 l35 7 -41 2 c-50 1 -69 27 -26 34 20 3
17 5 -13 6 -32 2 -36 4 -20 11 19 8 18 9 -5 11 -16 1 -8 5 20 9 l45 7 -55 2
c-40 1 -51 4 -40 11 13 8 12 10 -5 11 -11 1 -2 5 20 9 l40 7 -38 2 c-21 0 -45
8 -53 15 -13 13 -8 15 38 19 l53 3 -56 2 c-30 1 -61 8 -68 15 -11 10 -15 9
-19 -3 -3 -8 -30 -64 -59 -123 -134 -267 -357 -486 -628 -617 -229 -112 -366
-143 -620 -144 -237 -1 -406 36 -607 133 -313 150 -583 444 -704 766 -10 27
-33 62 -51 78 -85 75 -22 209 91 194 81 -11 122 -100 80 -174 -16 -27 -15 -31
15 -104 54 -130 35 -133 225 30 l166 143 0 194 0 194 165 0 165 0 0 110 0 110
-110 0 -110 0 0 110 0 110 -254 0 -254 0 -26 -70 c-42 -115 -68 -261 -70 -397
l-1 -123 -53 -11 c-30 -6 -57 -8 -60 -4 -4 4 -7 68 -6 143 3 394 186 776 494
1034 184 154 372 246 625 304 64 15 120 19 285 19 199 0 209 -1 333 -33 71
-18 143 -31 160 -29 30 3 29 4 -8 6 -32 2 -36 4 -20 11 l20 9 -20 2 c-11 1 -2
5 20 9 l40 7 -41 2 c-50 1 -69 27 -26 34 l27 4 -28 2 c-16 0 -25 5 -22 11 3 6
0 11 -7 11 -7 1 3 5 22 9 l35 7 -35 2 c-27 1 -31 4 -20 11 13 8 12 10 -5 11
-11 1 -2 5 20 9 l40 7 -40 2 c-32 2 -36 4 -20 11 19 8 18 9 -5 11 -16 1 -8 5
20 9 l45 7 -41 1 c-50 2 -69 28 -26 35 l27 4 -28 2 c-16 0 -25 5 -22 11 3 6 0
11 -7 12 -7 1 12 4 42 8 l55 7 -55 2 c-40 1 -51 4 -40 11 13 8 12 10 -5 11
-11 1 -2 5 20 9 l40 7 -40 2 c-32 2 -36 4 -20 11 19 8 18 9 -5 11 -16 1 -8 5
20 9 l45 7 -42 1 c-47 2 -61 27 -20 35 20 4 20 4 -4 6 -16 0 -26 7 -26 16 0
11 13 15 46 17 l46 1 -55 7 c-30 4 -48 8 -40 9 13 1 13 2 0 11 -11 7 -7 10 20
11 l35 2 -40 7 c-22 4 -31 8 -20 9 l20 2 -20 9 c-16 7 -12 9 20 11 l40 2 -39
6 c-55 8 -58 29 -4 34 l43 4 -41 1 c-27 1 -44 7 -48 17 -4 12 4 15 42 17 l47
1 -48 6 c-54 7 -65 23 -21 32 29 7 29 7 -6 8 -27 1 -31 4 -20 11 13 9 13 10 0
11 -8 1 10 5 40 9 l55 7 -55 2 c-40 1 -51 4 -40 11 13 8 12 10 -5 11 -11 1 -2
5 20 9 l40 7 -40 2 c-32 2 -36 4 -20 11 l20 9 -20 2 c-11 1 -2 5 20 9 l40 7
-42 2 c-31 1 -43 5 -43 16 0 11 12 15 43 17 l42 1 -45 6 c-37 6 -40 8 -20 13
24 5 24 5 -5 8 -23 2 -18 5 20 10 l50 7 -47 1 c-52 2 -63 22 -18 33 25 7 25 7
-3 8 -16 0 -26 5 -22 11 3 6 0 11 -7 11 -7 1 3 5 22 9 l35 7 -35 2 c-27 1 -31
4 -20 11 13 9 13 10 0 11 -8 1 1 5 20 9 l35 7 -35 2 c-27 1 -31 4 -20 11 13 8
12 10 -5 11 -11 1 -2 5 20 9 l40 7 -40 2 c-32 2 -36 4 -20 11 l20 9 -20 2
c-11 1 -2 5 20 9 l40 7 -40 2 c-32 2 -36 4 -20 11 19 8 18 9 -5 11 -16 1 -8 5
20 9 l45 7 -42 1 c-59 3 -59 29 0 35 l42 4 -42 1 c-59 3 -59 29 0 35 l42 4
-46 1 c-33 2 -46 6 -46 17 0 9 10 15 26 16 25 1 24 2 -4 8 -44 9 -33 25 22 32
l48 6 -48 1 c-29 1 -46 6 -42 12 3 6 0 11 -7 11 -7 1 3 5 22 9 l35 7 -35 2
c-27 1 -31 4 -20 11 13 9 13 10 0 11 -8 1 10 5 40 9 l55 7 -55 2 c-40 1 -51 4
-40 11 13 9 13 10 0 11 -8 1 1 5 20 9 l35 7 -35 2 c-27 1 -31 4 -20 11 13 9
13 10 0 11 -8 1 1 5 20 9 l35 7 -35 2 c-27 1 -31 4 -20 11 13 8 12 10 -5 11
-11 1 -2 5 20 9 l40 7 -40 2 c-32 2 -36 4 -20 11 l20 9 -20 2 c-11 1 -2 5 20
9 l40 7 -40 2 c-32 2 -36 4 -20 11 l20 9 -20 2 c-11 1 -2 5 20 9 l40 7 -40 2
c-32 2 -36 4 -20 11 l20 9 -20 2 c-11 1 -2 5 20 9 l40 7 -36 2 c-24 1 -36 6
-36 16 0 10 12 15 36 16 l36 2 -40 7 c-22 4 -31 8 -20 9 l20 2 -20 9 c-16 7
-12 9 20 11 l40 2 -35 6 c-48 8 -50 31 -2 32 l37 2 -40 7 c-22 4 -31 8 -20 9
l20 2 -20 9 c-16 7 -12 9 20 11 l40 2 -38 6 c-21 3 -38 11 -38 16 0 6 17 13
38 16 21 3 -1252 7 -2829 8 l-2868 1 0 -4340z m2878 -1162 l2 -608 -100 0
-100 0 0 60 0 60 -36 -40 c-111 -123 -335 -133 -501 -23 -68 45 -114 101 -154
188 -29 61 -33 81 -37 176 -4 90 -1 119 17 178 27 88 95 180 171 232 163 112
393 103 508 -18 l32 -34 0 221 0 221 98 -3 97 -3 3 -607z m372 527 l0 -85 -95
0 -95 0 0 85 0 85 95 0 95 0 0 -85z m1180 -130 l0 -105 95 0 95 0 0 -85 0 -85
-95 0 -95 0 0 -263 c0 -317 -2 -312 94 -305 33 3 69 8 79 13 15 6 17 -1 17
-78 l0 -85 -47 -10 c-142 -31 -218 -21 -274 38 -54 56 -59 92 -59 409 l0 280
-62 3 -63 3 0 80 0 80 63 3 62 3 0 104 0 105 95 0 95 0 0 -105z m3280 0 l0
-105 95 0 95 0 0 -85 0 -85 -95 0 -95 0 0 -257 c0 -311 -1 -308 85 -308 33 0
70 4 83 8 22 8 22 7 22 -76 l0 -84 -45 -13 c-67 -19 -194 -17 -231 3 -43 22
-81 70 -94 115 -6 21 -10 158 -10 325 l0 287 -65 0 -65 0 0 85 0 85 65 0 65 0
0 105 0 105 95 0 95 0 0 -105z m-3710 -187 l0 -93 -66 -3 c-123 -4 -213 -63
-269 -174 l-35 -71 0 -238 0 -239 -100 0 -100 0 2 448 3 447 95 0 95 0 5 -95
c5 -89 6 -93 18 -64 7 17 35 52 61 78 62 61 144 95 229 96 l62 0 0 -92z m2426
59 c67 -34 111 -72 145 -125 l27 -43 21 34 c31 50 104 115 159 140 38 17 66
21 147 22 90 0 106 -3 157 -28 91 -45 157 -137 178 -249 6 -28 10 -181 10
-339 l0 -289 -95 0 -95 0 0 268 c0 147 -5 287 -11 312 -23 104 -88 155 -195
154 -72 0 -134 -32 -178 -89 -54 -71 -56 -83 -56 -375 l0 -270 -100 0 -100 0
0 288 c0 322 -3 338 -73 399 -102 90 -258 53 -331 -77 l-31 -55 -3 -277 -3
-278 -95 0 -94 0 0 450 0 450 95 0 95 0 0 -82 0 -81 29 39 c74 101 148 137
271 131 56 -3 88 -10 126 -30z m-3176 -427 l0 -450 -95 0 -95 0 0 450 0 450
95 0 95 0 0 -450z m1801 124 c113 -257 146 -323 154 -310 5 9 71 154 145 323
l136 308 98 3 c58 2 97 -1 94 -7 -1 -5 -124 -282 -273 -615 l-270 -606 -97 0
-98 0 24 53 c13 28 49 109 81 178 l57 127 -187 418 c-103 231 -190 427 -192
437 -5 15 4 17 90 17 l94 0 144 -326z m-2286 -1185 l70 -90 3 90 3 91 29 0 30
0 0 -145 0 -145 -27 0 c-23 1 -40 16 -93 85 l-65 85 -3 -85 -3 -85 -29 0 -30
0 0 145 c0 144 0 145 23 145 16 0 41 -24 92 -91z m660 61 c0 -24 -3 -25 -62
-28 -62 -3 -63 -3 -63 -32 0 -27 2 -29 48 -32 43 -3 47 -5 47 -28 0 -23 -4
-25 -47 -28 -46 -3 -48 -5 -48 -33 l0 -29 65 0 c63 0 65 -1 65 -25 0 -25 0
-25 -95 -25 l-95 0 0 145 0 146 93 -3 c91 -3 92 -3 92 -28z m425 -75 c24 -58
47 -105 50 -105 4 0 26 47 50 105 42 104 43 105 76 105 39 0 42 14 -36 -160
-56 -124 -56 -125 -90 -125 -34 0 -34 1 -90 125 -78 174 -75 160 -37 160 33 0
34 -2 77 -105z m710 75 l0 -30 -60 0 -60 0 0 -30 c0 -29 2 -30 45 -30 43 0 45
-1 45 -30 0 -29 -2 -30 -45 -30 -43 0 -45 -1 -45 -30 l0 -30 65 0 c63 0 65 -1
65 -25 0 -25 0 -25 -95 -25 l-95 0 0 145 0 145 90 0 90 0 0 -30z m526 -3 c33
-39 33 -99 -1 -133 l-25 -25 30 -44 c16 -24 30 -46 30 -49 0 -3 -13 -6 -30 -6
-23 0 -35 9 -60 45 -19 27 -39 45 -50 45 -17 0 -20 -7 -20 -45 0 -43 -1 -45
-30 -45 l-30 0 0 146 0 146 81 -4 c74 -3 83 -6 105 -31z m969 10 c29 -16 45
-35 59 -68 26 -64 16 -111 -34 -161 l-38 -38 -86 0 -86 0 0 145 0 145 73 0
c56 0 81 -5 112 -23z m585 -7 l0 -30 -60 0 -60 0 0 -30 c0 -29 2 -30 45 -30
43 0 45 -1 45 -30 0 -29 -2 -30 -45 -30 -43 0 -45 -1 -45 -30 l0 -30 65 0 c63
0 65 -1 65 -25 l0 -25 -100 0 -100 0 0 145 0 145 95 0 95 0 0 -30z m528 3 c-3
-27 -6 -28 -65 -31 -62 -3 -63 -3 -63 -32 0 -29 1 -30 50 -30 49 0 50 -1 50
-30 0 -29 -1 -30 -50 -30 l-50 0 0 -55 0 -55 -35 0 -35 0 0 145 0 145 101 0
100 0 -3 -27z m512 -3 l0 -30 -65 0 -65 0 0 -30 c0 -29 1 -30 50 -30 49 0 50
-1 50 -30 0 -29 -1 -30 -50 -30 -49 0 -50 -1 -50 -30 l0 -30 65 0 c63 0 65 -1
65 -25 0 -25 0 -25 -95 -25 l-95 0 0 145 0 145 95 0 95 0 0 -30z m505 8 c47
-42 49 -98 4 -159 -10 -13 -6 -25 20 -63 l32 -46 -36 0 c-32 0 -39 5 -63 45
-19 31 -34 44 -49 45 -21 0 -23 -5 -23 -45 0 -43 -1 -45 -30 -45 l-30 0 0 145
0 145 74 0 c63 0 79 -3 101 -22z"/>
<path d="M2335 3297 c-140 -46 -220 -179 -196 -327 24 -149 115 -236 257 -248
114 -9 204 39 259 139 27 49 30 63 30 149 0 84 -3 102 -28 152 -43 87 -122
138 -222 144 -33 2 -78 -2 -100 -9z"/>
<path d="M4960 1944 l0 -46 37 7 c39 7 53 19 53 46 0 24 -21 39 -57 39 -33 0
-33 -1 -33 -46z"/>
<path d="M5930 1900 l0 -90 40 0 c56 0 90 34 90 90 0 56 -34 90 -90 90 l-40 0
0 -90z"/>
<path d="M8070 1944 l0 -46 37 7 c39 7 53 19 53 46 0 24 -21 39 -57 39 -33 0
-33 -1 -33 -46z"/>
<path d="M5708 8133 c7 -3 16 -2 19 1 4 3 -2 6 -13 5 -11 0 -14 -3 -6 -6z"/>
<path d="M5748 8113 c7 -3 16 -2 19 1 4 3 -2 6 -13 5 -11 0 -14 -3 -6 -6z"/>
<path d="M5708 8053 c7 -3 16 -2 19 1 4 3 -2 6 -13 5 -11 0 -14 -3 -6 -6z"/>
<path d="M5788 7913 c7 -3 16 -2 19 1 4 3 -2 6 -13 5 -11 0 -14 -3 -6 -6z"/>
<path d="M5788 7833 c7 -3 16 -2 19 1 4 3 -2 6 -13 5 -11 0 -14 -3 -6 -6z"/>
<path d="M5788 7793 c7 -3 16 -2 19 1 4 3 -2 6 -13 5 -11 0 -14 -3 -6 -6z"/>
<path d="M5788 7493 c7 -3 16 -2 19 1 4 3 -2 6 -13 5 -11 0 -14 -3 -6 -6z"/>
<path d="M5788 7453 c7 -3 16 -2 19 1 4 3 -2 6 -13 5 -11 0 -14 -3 -6 -6z"/>
<path d="M5868 7433 c7 -3 16 -2 19 1 4 3 -2 6 -13 5 -11 0 -14 -3 -6 -6z"/>
<path d="M5868 7313 c7 -3 16 -2 19 1 4 3 -2 6 -13 5 -11 0 -14 -3 -6 -6z"/>
<path d="M5908 7153 c7 -3 16 -2 19 1 4 3 -2 6 -13 5 -11 0 -14 -3 -6 -6z"/>
<path d="M5948 7033 c7 -3 16 -2 19 1 4 3 -2 6 -13 5 -11 0 -14 -3 -6 -6z"/>
<path d="M5948 6993 c7 -3 16 -2 19 1 4 3 -2 6 -13 5 -11 0 -14 -3 -6 -6z"/>
<path d="M5269 6851 c-25 -5 -71 -14 -102 -21 l-57 -11 0 -200 0 -199 115 0
115 0 0 -110 0 -110 163 0 162 0 113 113 112 112 0 178 0 177 -27 11 c-113 43
-222 61 -383 64 -91 2 -186 0 -211 -4z"/>
<path d="M4873 6725 c-215 -106 -395 -270 -527 -482 l-26 -43 225 0 225 0 0
110 0 110 110 0 110 0 0 180 c0 99 -1 180 -3 180 -1 0 -53 -25 -114 -55z"/>
<path d="M6018 6713 c7 -3 16 -2 19 1 4 3 -2 6 -13 5 -11 0 -14 -3 -6 -6z"/>
<path d="M6018 6673 c6 -2 18 -2 25 0 6 3 1 5 -13 5 -14 0 -19 -2 -12 -5z"/>
<path d="M6028 6633 c12 -2 32 -2 45 0 12 2 2 4 -23 4 -25 0 -35 -2 -22 -4z"/>
<path d="M6028 6613 c7 -3 16 -2 19 1 4 3 -2 6 -13 5 -11 0 -14 -3 -6 -6z"/>
<path d="M6028 6593 c12 -2 32 -2 45 0 12 2 2 4 -23 4 -25 0 -35 -2 -22 -4z"/>
<path d="M6017 6573 c-4 -3 -7 -52 -7 -107 l0 -101 -112 -112 -112 -112 37
-55 37 -56 198 1 c113 0 188 4 177 9 -16 6 -12 9 20 12 l40 5 -40 2 c-32 2
-36 4 -20 11 19 8 18 9 -5 11 -16 1 -8 5 20 9 l45 7 -48 1 c-29 1 -46 6 -42
12 3 6 0 11 -7 11 -7 1 3 5 22 9 l35 7 -40 2 c-32 2 -36 4 -20 11 19 8 19 9
-1 9 -12 1 -24 8 -28 16 -4 12 4 15 42 17 l47 1 -55 7 c-30 4 -48 8 -40 9 13
1 13 2 0 11 -11 7 -7 10 20 11 l35 2 -39 6 c-55 8 -58 29 -4 34 l43 4 -48 1
c-29 1 -46 6 -42 12 3 6 0 11 -7 11 -7 1 3 5 22 9 l35 7 -35 2 c-27 1 -31 4
-20 11 13 8 12 10 -5 11 -11 1 -2 5 20 9 l40 7 -41 2 c-26 0 -44 6 -47 15 -5
12 5 16 41 19 l47 3 -55 2 c-40 2 -51 5 -40 12 13 9 13 10 0 11 -8 1 1 5 20 9
l35 7 -40 2 c-32 2 -36 4 -20 11 19 8 18 9 -5 11 -16 1 -8 5 20 9 l45 7 -47 1
c-52 2 -63 22 -18 33 22 6 20 7 -10 8 -27 1 -31 4 -20 11 13 8 12 10 -5 11
-11 1 -2 5 20 9 l40 7 -40 2 c-32 2 -36 4 -20 11 15 6 16 9 4 9 -9 1 -19 -2
-22 -6z"/>
<path d="M6108 6553 c7 -3 16 -2 19 1 4 3 -2 6 -13 5 -11 0 -14 -3 -6 -6z"/>
<path d="M6108 6513 c7 -3 16 -2 19 1 4 3 -2 6 -13 5 -11 0 -14 -3 -6 -6z"/>
<path d="M6108 6373 c7 -3 16 -2 19 1 4 3 -2 6 -13 5 -11 0 -14 -3 -6 -6z"/>
<path d="M6188 6313 c7 -3 16 -2 19 1 4 3 -2 6 -13 5 -11 0 -14 -3 -6 -6z"/>
<path d="M4890 6145 l0 -165 165 0 165 0 0 165 0 165 -165 0 -165 0 0 -165z"/>
<path d="M6228 6233 c7 -3 16 -2 19 1 4 3 -2 6 -13 5 -11 0 -14 -3 -6 -6z"/>
<path d="M5340 5970 l0 -110 -115 0 -115 0 0 -170 0 -170 -165 0 -165 0 0
-103 0 -102 105 -105 105 -105 0 103 0 102 285 0 285 0 0 -170 0 -170 108 0
107 0 113 113 112 112 0 138 0 137 -110 0 -110 0 0 220 0 220 -57 85 -56 85
-164 0 -163 0 0 -110z"/>
<path d="M6348 5933 c7 -3 16 -2 19 1 4 3 -2 6 -13 5 -11 0 -14 -3 -6 -6z"/>
<path d="M5900 5750 l0 -160 160 0 160 0 0 160 0 160 -160 0 -160 0 0 -160z"/>
<path d="M6348 5893 c7 -3 16 -2 19 1 4 3 -2 6 -13 5 -11 0 -14 -3 -6 -6z"/>
<path d="M6358 5853 c12 -2 30 -2 40 0 9 3 -1 5 -23 4 -22 0 -30 -2 -17 -4z"/>
<path d="M6348 5833 c7 -3 16 -2 19 1 4 3 -2 6 -13 5 -11 0 -14 -3 -6 -6z"/>
<path d="M6358 5813 c12 -2 30 -2 40 0 9 3 -1 5 -23 4 -22 0 -30 -2 -17 -4z"/>
<path d="M6340 5775 c0 -22 4 -25 38 -24 35 2 35 2 7 8 -26 4 -24 6 20 11 l50
7 -55 2 c-40 1 -51 4 -40 11 13 8 12 10 -2 10 -13 0 -18 -8 -18 -25z"/>
<path d="M6340 5550 l0 -80 -110 0 -110 0 0 -153 0 -153 -36 -35 c-65 -62 -72
-51 127 -225 99 -88 184 -160 189 -162 16 -6 136 167 184 263 57 114 100 235
83 235 -7 0 -6 4 3 10 11 7 12 10 2 10 -7 0 -20 7 -28 15 -14 13 -12 15 18 16
32 2 32 2 -6 8 -55 8 -58 29 -4 34 l43 4 -48 1 c-29 1 -46 6 -42 12 3 6 -2 11
-12 11 -10 1 0 5 22 9 l40 7 -41 2 c-26 0 -44 6 -47 15 -5 12 5 16 41 19 l47
3 -55 2 c-40 2 -51 5 -40 12 13 8 12 10 -5 11 -11 1 -2 5 20 9 l40 7 -48 2
c-29 0 -46 5 -42 11 3 6 0 11 -7 11 -7 1 3 5 22 9 l35 7 -40 2 c-32 2 -36 4
-20 11 19 8 18 9 -5 11 -16 1 -8 5 20 9 l45 7 -48 1 c-29 1 -46 6 -42 12 3 6
0 11 -7 11 -7 1 3 5 22 9 l35 7 -40 2 c-31 2 -36 4 -20 11 18 7 16 8 -10 12
-23 4 -18 6 20 8 l50 3 -60 7 c-33 4 -77 8 -97 9 l-38 1 0 -80z"/>
<path d="M6588 5493 c7 -3 16 -2 19 1 4 3 -2 6 -13 5 -11 0 -14 -3 -6 -6z"/>
<path d="M6668 5373 c7 -3 16 -2 19 1 4 3 -2 6 -13 5 -11 0 -14 -3 -6 -6z"/>
<path d="M6668 5273 c7 -3 16 -2 19 1 4 3 -2 6 -13 5 -11 0 -14 -3 -6 -6z"/>
<path d="M5110 5025 l0 -165 165 0 165 0 0 165 0 165 -165 0 -165 0 0 -165z"/>
<path d="M4730 5144 c-8 -9 -85 -77 -172 -152 -87 -74 -158 -138 -158 -143 0
-17 123 -160 187 -217 178 -157 374 -256 597 -304 134 -28 370 -30 499 -5 105
21 236 66 332 115 126 63 302 192 290 212 -3 5 -84 80 -181 166 l-176 157 -55
-61 -55 -62 -139 0 -139 0 0 -55 0 -55 -285 0 -285 0 0 88 0 87 -123 123
c-112 112 -125 122 -137 106z"/>
<path d="M6778 5133 c6 -2 18 -2 25 0 6 3 1 5 -13 5 -14 0 -19 -2 -12 -5z"/>
<path d="M6828 5133 c7 -3 16 -2 19 1 4 3 -2 6 -13 5 -11 0 -14 -3 -6 -6z"/>
<path d="M6773 5093 c9 -2 23 -2 30 0 6 3 -1 5 -18 5 -16 0 -22 -2 -12 -5z"/>
<path d="M6828 5093 c7 -3 16 -2 19 1 4 3 -2 6 -13 5 -11 0 -14 -3 -6 -6z"/>
<path d="M6828 5033 c7 -3 16 -2 19 1 4 3 -2 6 -13 5 -11 0 -14 -3 -6 -6z"/>
<path d="M6948 4933 c7 -3 16 -2 19 1 4 3 -2 6 -13 5 -11 0 -14 -3 -6 -6z"/>
<path d="M6988 4893 c7 -3 16 -2 19 1 4 3 -2 6 -13 5 -11 0 -14 -3 -6 -6z"/>
<path d="M7068 4813 c7 -3 16 -2 19 1 4 3 -2 6 -13 5 -11 0 -14 -3 -6 -6z"/>
<path d="M7068 4773 c7 -3 16 -2 19 1 4 3 -2 6 -13 5 -11 0 -14 -3 -6 -6z"/>
<path d="M7068 4713 c7 -3 16 -2 19 1 4 3 -2 6 -13 5 -11 0 -14 -3 -6 -6z"/>
<path d="M7148 4693 c7 -3 16 -2 19 1 4 3 -2 6 -13 5 -11 0 -14 -3 -6 -6z"/>
<path d="M7188 4653 c7 -3 16 -2 19 1 4 3 -2 6 -13 5 -11 0 -14 -3 -6 -6z"/>
<path d="M7148 4593 c7 -3 16 -2 19 1 4 3 -2 6 -13 5 -11 0 -14 -3 -6 -6z"/>
<path d="M7268 4533 c7 -3 16 -2 19 1 4 3 -2 6 -13 5 -11 0 -14 -3 -6 -6z"/>
<path d="M7268 4473 c7 -3 16 -2 19 1 4 3 -2 6 -13 5 -11 0 -14 -3 -6 -6z"/>
<path d="M7388 4413 c7 -3 16 -2 19 1 4 3 -2 6 -13 5 -11 0 -14 -3 -6 -6z"/>
<path d="M7468 4333 c7 -3 16 -2 19 1 4 3 -2 6 -13 5 -11 0 -14 -3 -6 -6z"/>
<path d="M7548 4253 c7 -3 16 -2 19 1 4 3 -2 6 -13 5 -11 0 -14 -3 -6 -6z"/>
<path d="M7628 4173 c7 -3 16 -2 19 1 4 3 -2 6 -13 5 -11 0 -14 -3 -6 -6z"/>
<path d="M7708 4093 c7 -3 16 -2 19 1 4 3 -2 6 -13 5 -11 0 -14 -3 -6 -6z"/>
<path d="M7788 4013 c7 -3 16 -2 19 1 4 3 -2 6 -13 5 -11 0 -14 -3 -6 -6z"/>
<path d="M7828 3973 c7 -3 16 -2 19 1 4 3 -2 6 -13 5 -11 0 -14 -3 -6 -6z"/>
<path d="M7828 3913 c7 -3 16 -2 19 1 4 3 -2 6 -13 5 -11 0 -14 -3 -6 -6z"/>
<path d="M7908 3893 c7 -3 16 -2 19 1 4 3 -2 6 -13 5 -11 0 -14 -3 -6 -6z"/>
<path d="M7988 3853 c7 -3 16 -2 19 1 4 3 -2 6 -13 5 -11 0 -14 -3 -6 -6z"/>
<path d="M7948 3793 c7 -3 16 -2 19 1 4 3 -2 6 -13 5 -11 0 -14 -3 -6 -6z"/>
<path d="M8028 3753 c7 -3 16 -2 19 1 4 3 -2 6 -13 5 -11 0 -14 -3 -6 -6z"/>
<path d="M8108 3733 c7 -3 16 -2 19 1 4 3 -2 6 -13 5 -11 0 -14 -3 -6 -6z"/>
<path d="M8188 3693 c7 -3 16 -2 19 1 4 3 -2 6 -13 5 -11 0 -14 -3 -6 -6z"/>
<path d="M8108 3673 c7 -3 16 -2 19 1 4 3 -2 6 -13 5 -11 0 -14 -3 -6 -6z"/>
<path d="M8268 3613 c7 -3 16 -2 19 1 4 3 -2 6 -13 5 -11 0 -14 -3 -6 -6z"/>
<path d="M8308 3573 c7 -3 16 -2 19 1 4 3 -2 6 -13 5 -11 0 -14 -3 -6 -6z"/>
<path d="M8388 3533 c7 -3 16 -2 19 1 4 3 -2 6 -13 5 -11 0 -14 -3 -6 -6z"/>
<path d="M8428 3493 c7 -3 16 -2 19 1 4 3 -2 6 -13 5 -11 0 -14 -3 -6 -6z"/>
<path d="M8415 3299 c-177 -44 -264 -250 -179 -426 99 -206 402 -200 495 10
32 71 31 190 0 263 -52 119 -187 185 -316 153z"/>
<path d="M8948 3173 c7 -3 16 -2 19 1 4 3 -2 6 -13 5 -11 0 -14 -3 -6 -6z"/>
<path d="M8948 3133 c12 -2 32 -2 45 0 12 2 2 4 -23 4 -25 0 -35 -2 -22 -4z"/>
<path d="M9028 3133 c7 -3 16 -2 19 1 4 3 -2 6 -13 5 -11 0 -14 -3 -6 -6z"/>
<path d="M8948 3113 c7 -3 16 -2 19 1 4 3 -2 6 -13 5 -11 0 -14 -3 -6 -6z"/>
<path d="M9068 3093 c7 -3 16 -2 19 1 4 3 -2 6 -13 5 -11 0 -14 -3 -6 -6z"/>
<path d="M9188 3053 c7 -3 16 -2 19 1 4 3 -2 6 -13 5 -11 0 -14 -3 -6 -6z"/>
<path d="M9108 3033 c7 -3 16 -2 19 1 4 3 -2 6 -13 5 -11 0 -14 -3 -6 -6z"/>
<path d="M9228 3013 c7 -3 16 -2 19 1 4 3 -2 6 -13 5 -11 0 -14 -3 -6 -6z"/>
<path d="M9348 2973 c7 -3 16 -2 19 1 4 3 -2 6 -13 5 -11 0 -14 -3 -6 -6z"/>
<path d="M9268 2953 c7 -3 16 -2 19 1 4 3 -2 6 -13 5 -11 0 -14 -3 -6 -6z"/>
<path d="M9388 2933 c7 -3 16 -2 19 1 4 3 -2 6 -13 5 -11 0 -14 -3 -6 -6z"/>
<path d="M9548 2893 c7 -3 16 -2 19 1 4 3 -2 6 -13 5 -11 0 -14 -3 -6 -6z"/>
<path d="M9428 2873 c7 -3 16 -2 19 1 4 3 -2 6 -13 5 -11 0 -14 -3 -6 -6z"/>
<path d="M9468 2873 c7 -3 16 -2 19 1 4 3 -2 6 -13 5 -11 0 -14 -3 -6 -6z"/>
<path d="M9588 2853 c7 -3 16 -2 19 1 4 3 -2 6 -13 5 -11 0 -14 -3 -6 -6z"/>
<path d="M9708 2813 c7 -3 16 -2 19 1 4 3 -2 6 -13 5 -11 0 -14 -3 -6 -6z"/>
<path d="M9628 2793 c7 -3 16 -2 19 1 4 3 -2 6 -13 5 -11 0 -14 -3 -6 -6z"/>
<path d="M9788 2773 c7 -3 16 -2 19 1 4 3 -2 6 -13 5 -11 0 -14 -3 -6 -6z"/>
<path d="M9708 2753 c7 -3 16 -2 19 1 4 3 -2 6 -13 5 -11 0 -14 -3 -6 -6z"/>
<path d="M9948 2733 c7 -3 16 -2 19 1 4 3 -2 6 -13 5 -11 0 -14 -3 -6 -6z"/>
<path d="M9828 2713 c7 -3 16 -2 19 1 4 3 -2 6 -13 5 -11 0 -14 -3 -6 -6z"/>
<path d="M9988 2693 c7 -3 16 -2 19 1 4 3 -2 6 -13 5 -11 0 -14 -3 -6 -6z"/>
<path d="M10028 2693 c7 -3 16 -2 19 1 4 3 -2 6 -13 5 -11 0 -14 -3 -6 -6z"/>
<path d="M9908 2673 c7 -3 16 -2 19 1 4 3 -2 6 -13 5 -11 0 -14 -3 -6 -6z"/>
<path d="M10188 2653 c7 -3 16 -2 19 1 4 3 -2 6 -13 5 -11 0 -14 -3 -6 -6z"/>
<path d="M10028 2633 c7 -3 16 -2 19 1 4 3 -2 6 -13 5 -11 0 -14 -3 -6 -6z"/>
<path d="M10068 2633 c7 -3 16 -2 19 1 4 3 -2 6 -13 5 -11 0 -14 -3 -6 -6z"/>
<path d="M10268 2613 c7 -3 16 -2 19 1 4 3 -2 6 -13 5 -11 0 -14 -3 -6 -6z"/>
<path d="M10148 2593 c7 -3 16 -2 19 1 4 3 -2 6 -13 5 -11 0 -14 -3 -6 -6z"/>
<path d="M10428 2573 c7 -3 16 -2 19 1 4 3 -2 6 -13 5 -11 0 -14 -3 -6 -6z"/>
<path d="M10468 2573 c7 -3 16 -2 19 1 4 3 -2 6 -13 5 -11 0 -14 -3 -6 -6z"/>
<path d="M10508 2573 c7 -3 16 -2 19 1 4 3 -2 6 -13 5 -11 0 -14 -3 -6 -6z"/>
<path d="M10308 2553 c7 -3 16 -2 19 1 4 3 -2 6 -13 5 -11 0 -14 -3 -6 -6z"/>
<path d="M10348 2553 c7 -3 16 -2 19 1 4 3 -2 6 -13 5 -11 0 -14 -3 -6 -6z"/>
<path d="M10508 2533 c7 -3 16 -2 19 1 4 3 -2 6 -13 5 -11 0 -14 -3 -6 -6z"/>
<path d="M10548 2533 c7 -3 16 -2 19 1 4 3 -2 6 -13 5 -11 0 -14 -3 -6 -6z"/>
<path d="M10588 2533 c7 -3 16 -2 19 1 4 3 -2 6 -13 5 -11 0 -14 -3 -6 -6z"/>
<path d="M10428 2513 c7 -3 16 -2 19 1 4 3 -2 6 -13 5 -11 0 -14 -3 -6 -6z"/>
<path d="M10748 2493 c7 -3 16 -2 19 1 4 3 -2 6 -13 5 -11 0 -14 -3 -6 -6z"/>
<path d="M10788 2493 c7 -3 16 -2 19 1 4 3 -2 6 -13 5 -11 0 -14 -3 -6 -6z"/>
<path d="M10828 2493 c7 -3 16 -2 19 1 4 3 -2 6 -13 5 -11 0 -14 -3 -6 -6z"/>
<path d="M10588 2473 c7 -3 16 -2 19 1 4 3 -2 6 -13 5 -11 0 -14 -3 -6 -6z"/>
<path d="M10628 2473 c7 -3 16 -2 19 1 4 3 -2 6 -13 5 -11 0 -14 -3 -6 -6z"/>
<path d="M10668 2473 c7 -3 16 -2 19 1 4 3 -2 6 -13 5 -11 0 -14 -3 -6 -6z"/>
<path d="M10788 2433 c7 -3 16 -2 19 1 4 3 -2 6 -13 5 -11 0 -14 -3 -6 -6z"/>
<path d="M10828 2433 c7 -3 16 -2 19 1 4 3 -2 6 -13 5 -11 0 -14 -3 -6 -6z"/>
</g>
</svg>
