<?xml version="1.0" standalone="no"?>
<!DOCTYPE svg PUBLIC "-//W3C//DTD SVG 20010904//EN"
 "http://www.w3.org/TR/2001/REC-SVG-20010904/DTD/svg10.dtd">
<svg version="1.0" xmlns="http://www.w3.org/2000/svg"
 width="296.000000pt" height="282.000000pt" viewBox="0 0 296.000000 282.000000"
 preserveAspectRatio="xMidYMid meet">

<g transform="translate(0.000000,282.000000) scale(0.100000,-0.100000)"
fill="#000000" stroke="none">
<path d="M0 1410 l0 -1410 1480 0 1480 0 0 390 c0 305 -3 390 -12 390 -9 0 -8
4 2 10 12 8 12 10 -5 11 l-20 0 20 9 c17 7 16 9 -10 9 -23 1 -27 4 -15 11 13
8 12 10 -5 11 -11 1 -4 5 15 9 l35 7 -33 2 c-18 0 -40 8 -48 15 -12 13 -8 15
33 19 l48 3 -50 2 c-28 1 -57 8 -64 15 -11 10 -15 9 -19 -3 -3 -8 -30 -64 -59
-123 -134 -267 -357 -486 -628 -617 -229 -112 -366 -143 -620 -144 -237 -1
-406 36 -607 133 -313 150 -583 444 -704 766 -10 27 -33 62 -51 78 -85 75 -22
209 91 194 81 -11 122 -100 80 -174 -16 -27 -15 -31 15 -104 54 -130 35 -133
225 30 l166 143 0 194 0 194 165 0 165 0 0 110 0 110 -110 0 -110 0 0 110 0
110 -254 0 -254 0 -26 -70 c-42 -115 -68 -261 -70 -397 l-1 -123 -53 -11 c-30
-6 -57 -8 -60 -4 -4 4 -7 68 -6 143 3 330 125 639 357 904 59 67 196 185 273
234 168 108 402 194 589 217 17 2 -279 5 -657 6 l-688 1 0 -1410z"/>
<path d="M1733 2809 c32 -5 103 -20 157 -34 54 -15 113 -25 132 -22 32 4 32 4
-7 6 -32 2 -36 4 -20 11 l20 9 -20 2 c-11 1 -2 5 20 9 l40 7 -42 2 c-24 0 -43
6 -43 11 0 6 -55 10 -147 9 -124 -1 -138 -3 -90 -10z"/>
<path d="M1349 2691 c-25 -5 -71 -14 -102 -21 l-57 -11 0 -200 0 -199 115 0
115 0 0 -110 0 -110 163 0 162 0 113 113 112 112 0 178 0 177 -27 11 c-113 43
-222 61 -383 64 -91 2 -186 0 -211 -4z"/>
<path d="M953 2565 c-215 -106 -395 -270 -527 -482 l-26 -43 225 0 225 0 0
110 0 110 110 0 110 0 0 180 c0 99 -1 180 -3 180 -1 0 -53 -25 -114 -55z"/>
<path d="M2098 2553 c7 -3 16 -2 19 1 4 3 -2 6 -13 5 -11 0 -14 -3 -6 -6z"/>
<path d="M2098 2513 c6 -2 18 -2 25 0 6 3 1 5 -13 5 -14 0 -19 -2 -12 -5z"/>
<path d="M2108 2473 c12 -2 32 -2 45 0 12 2 2 4 -23 4 -25 0 -35 -2 -22 -4z"/>
<path d="M2108 2453 c7 -3 16 -2 19 1 4 3 -2 6 -13 5 -11 0 -14 -3 -6 -6z"/>
<path d="M2108 2433 c12 -2 32 -2 45 0 12 2 2 4 -23 4 -25 0 -35 -2 -22 -4z"/>
<path d="M2097 2413 c-4 -3 -7 -52 -7 -107 l0 -101 -112 -112 -112 -112 37
-55 37 -56 198 1 c113 0 188 4 177 9 -16 6 -12 9 20 12 l40 5 -40 2 c-32 2
-36 4 -20 11 19 8 18 9 -5 11 -16 1 -8 5 20 9 l45 7 -48 1 c-29 1 -46 6 -42
12 3 6 0 11 -7 11 -7 1 3 5 22 9 l35 7 -40 2 c-32 2 -36 4 -20 11 19 8 19 9
-1 9 -12 1 -24 8 -28 16 -4 12 4 15 42 17 l47 1 -55 7 c-30 4 -48 8 -40 9 13
1 13 2 0 11 -11 7 -7 10 20 11 l35 2 -39 6 c-55 8 -58 29 -4 34 l43 4 -48 1
c-29 1 -46 6 -42 12 3 6 0 11 -7 11 -7 1 3 5 22 9 l35 7 -35 2 c-27 1 -31 4
-20 11 13 8 12 10 -5 11 -11 1 -2 5 20 9 l40 7 -41 2 c-26 0 -44 6 -47 15 -5
12 5 16 41 19 l47 3 -55 2 c-40 2 -51 5 -40 12 13 9 13 10 0 11 -8 1 1 5 20 9
l35 7 -40 2 c-32 2 -36 4 -20 11 19 8 18 9 -5 11 -16 1 -8 5 20 9 l45 7 -47 1
c-52 2 -63 22 -18 33 22 6 20 7 -10 8 -27 1 -31 4 -20 11 13 8 12 10 -5 11
-11 1 -2 5 20 9 l40 7 -40 2 c-32 2 -36 4 -20 11 15 6 16 9 4 9 -9 1 -19 -2
-22 -6z"/>
<path d="M2188 2393 c7 -3 16 -2 19 1 4 3 -2 6 -13 5 -11 0 -14 -3 -6 -6z"/>
<path d="M2188 2353 c7 -3 16 -2 19 1 4 3 -2 6 -13 5 -11 0 -14 -3 -6 -6z"/>
<path d="M2188 2213 c7 -3 16 -2 19 1 4 3 -2 6 -13 5 -11 0 -14 -3 -6 -6z"/>
<path d="M2268 2153 c7 -3 16 -2 19 1 4 3 -2 6 -13 5 -11 0 -14 -3 -6 -6z"/>
<path d="M970 1985 l0 -165 165 0 165 0 0 165 0 165 -165 0 -165 0 0 -165z"/>
<path d="M2308 2073 c7 -3 16 -2 19 1 4 3 -2 6 -13 5 -11 0 -14 -3 -6 -6z"/>
<path d="M1420 1810 l0 -110 -115 0 -115 0 0 -170 0 -170 -165 0 -165 0 0
-103 0 -102 105 -105 105 -105 0 103 0 102 285 0 285 0 0 -170 0 -170 108 0
107 0 113 113 112 112 0 138 0 137 -110 0 -110 0 0 220 0 220 -57 85 -56 85
-164 0 -163 0 0 -110z"/>
<path d="M2428 1773 c7 -3 16 -2 19 1 4 3 -2 6 -13 5 -11 0 -14 -3 -6 -6z"/>
<path d="M1980 1590 l0 -160 160 0 160 0 0 160 0 160 -160 0 -160 0 0 -160z"/>
<path d="M2428 1733 c7 -3 16 -2 19 1 4 3 -2 6 -13 5 -11 0 -14 -3 -6 -6z"/>
<path d="M2438 1693 c12 -2 30 -2 40 0 9 3 -1 5 -23 4 -22 0 -30 -2 -17 -4z"/>
<path d="M2428 1673 c7 -3 16 -2 19 1 4 3 -2 6 -13 5 -11 0 -14 -3 -6 -6z"/>
<path d="M2438 1653 c12 -2 30 -2 40 0 9 3 -1 5 -23 4 -22 0 -30 -2 -17 -4z"/>
<path d="M2420 1615 c0 -22 4 -25 38 -24 35 2 35 2 7 8 -26 4 -24 6 20 11 l50
7 -55 2 c-40 1 -51 4 -40 11 13 8 12 10 -2 10 -13 0 -18 -8 -18 -25z"/>
<path d="M2420 1390 l0 -80 -110 0 -110 0 0 -153 0 -153 -36 -35 c-65 -62 -72
-51 127 -225 99 -88 184 -160 189 -162 16 -6 136 167 184 263 57 114 100 235
83 235 -7 0 -6 4 3 10 11 7 12 10 2 10 -7 0 -20 7 -28 15 -14 13 -12 15 18 16
32 2 32 2 -6 8 -55 8 -58 29 -4 34 l43 4 -48 1 c-29 1 -46 6 -42 12 3 6 -2 11
-12 11 -10 1 0 5 22 9 l40 7 -41 2 c-26 0 -44 6 -47 15 -5 12 5 16 41 19 l47
3 -55 2 c-40 2 -51 5 -40 12 13 8 12 10 -5 11 -11 1 -2 5 20 9 l40 7 -48 2
c-29 0 -46 5 -42 11 3 6 0 11 -7 11 -7 1 3 5 22 9 l35 7 -40 2 c-32 2 -36 4
-20 11 19 8 18 9 -5 11 -16 1 -8 5 20 9 l45 7 -48 1 c-29 1 -46 6 -42 12 3 6
0 11 -7 11 -7 1 3 5 22 9 l35 7 -40 2 c-31 2 -36 4 -20 11 18 7 16 8 -10 12
-23 4 -18 6 20 8 l50 3 -60 7 c-33 4 -77 8 -97 9 l-38 1 0 -80z"/>
<path d="M2668 1333 c7 -3 16 -2 19 1 4 3 -2 6 -13 5 -11 0 -14 -3 -6 -6z"/>
<path d="M2748 1213 c7 -3 16 -2 19 1 4 3 -2 6 -13 5 -11 0 -14 -3 -6 -6z"/>
<path d="M2748 1113 c7 -3 16 -2 19 1 4 3 -2 6 -13 5 -11 0 -14 -3 -6 -6z"/>
<path d="M1190 865 l0 -165 165 0 165 0 0 165 0 165 -165 0 -165 0 0 -165z"/>
<path d="M810 984 c-8 -9 -85 -77 -172 -152 -87 -74 -158 -138 -158 -143 0
-17 123 -160 187 -217 178 -157 374 -256 597 -304 134 -28 370 -30 499 -5 105
21 236 66 332 115 126 63 302 192 290 212 -3 5 -84 80 -181 166 l-176 157 -55
-61 -55 -62 -139 0 -139 0 0 -55 0 -55 -285 0 -285 0 0 88 0 87 -123 123
c-112 112 -125 122 -137 106z"/>
<path d="M2858 973 c6 -2 18 -2 25 0 6 3 1 5 -13 5 -14 0 -19 -2 -12 -5z"/>
<path d="M2908 973 c7 -3 16 -2 19 1 4 3 -2 6 -13 5 -11 0 -14 -3 -6 -6z"/>
<path d="M2853 933 c9 -2 23 -2 30 0 6 3 -1 5 -18 5 -16 0 -22 -2 -12 -5z"/>
<path d="M2908 933 c7 -3 16 -2 19 1 4 3 -2 6 -13 5 -11 0 -14 -3 -6 -6z"/>
<path d="M2908 873 c7 -3 16 -2 19 1 4 3 -2 6 -13 5 -11 0 -14 -3 -6 -6z"/>
</g>
</svg>
